<?xml version="1.0" encoding="utf-8"?>
<!-- Generator: Adobe Illustrator 23.0.3, SVG Export Plug-In . SVG Version: 6.00 Build 0)  -->
<!DOCTYPE svg PUBLIC "-//W3C//DTD SVG 1.1//EN" "http://www.w3.org/Graphics/SVG/1.1/DTD/svg11.dtd" [
	<!ENTITY ns_extend "http://ns.adobe.com/Extensibility/1.0/">
	<!ENTITY ns_ai "http://ns.adobe.com/AdobeIllustrator/10.0/">
	<!ENTITY ns_graphs "http://ns.adobe.com/Graphs/1.0/">
	<!ENTITY ns_vars "http://ns.adobe.com/Variables/1.0/">
	<!ENTITY ns_imrep "http://ns.adobe.com/ImageReplacement/1.0/">
	<!ENTITY ns_sfw "http://ns.adobe.com/SaveForWeb/1.0/">
	<!ENTITY ns_custom "http://ns.adobe.com/GenericCustomNamespace/1.0/">
	<!ENTITY ns_adobe_xpath "http://ns.adobe.com/XPath/1.0/">
]>
<svg version="1.1" xmlns:x="&ns_extend;" xmlns:i="&ns_ai;" xmlns:graph="&ns_graphs;"
	 xmlns="http://www.w3.org/2000/svg" xmlns:xlink="http://www.w3.org/1999/xlink" x="0px" y="0px" viewBox="0 0 1000 700"
	 style="enable-background:new 0 0 1000 700;" xml:space="preserve">
<style type="text/css">
	.st0{fill:#FFFFFF;}
	.st1{fill:#C346FF;}
	.st2{font-family:'Rubik-Regular';}
	.st3{font-size:20px;}
	.st4{font-family:'Poppins-SemiBold';}
	.st5{font-size:18px;}
	.st6{fill:none;stroke:#000000;stroke-width:3.25;stroke-linecap:round;stroke-linejoin:round;}
	.st7{fill:none;stroke:#000000;stroke-width:3.25;stroke-linecap:round;stroke-linejoin:round;stroke-dasharray:4.0081,7.0141;}
	.st8{fill:none;stroke:#C346FF;stroke-width:3.25;stroke-linecap:round;stroke-linejoin:round;}
	.st9{fill:none;stroke:#C346FF;stroke-width:3.25;stroke-linecap:round;stroke-linejoin:round;stroke-dasharray:4.0081,7.0141;}
	.st10{fill:none;stroke:#C346FF;stroke-width:3.25;stroke-linecap:round;stroke-linejoin:round;stroke-dasharray:3.8608,6.7564;}
	.st11{fill:none;stroke:#C346FF;stroke-width:3.25;stroke-linecap:round;stroke-linejoin:round;stroke-dasharray:4.0373,7.0652;}
	.st12{fill:none;stroke:#C346FF;stroke-width:3.25;stroke-linecap:round;stroke-linejoin:round;stroke-dasharray:3.8299,6.7023;}
	.st13{fill:none;stroke:#C346FF;stroke-width:3.25;stroke-linecap:round;stroke-linejoin:round;stroke-dasharray:4.0059,7.0103;}
	.st14{fill:none;stroke:#C346FF;stroke-width:3.25;stroke-linecap:round;stroke-linejoin:round;stroke-dasharray:4.6985,8.2225;}
	.st15{fill:none;stroke:#C346FF;stroke-width:3.25;stroke-linecap:round;stroke-linejoin:round;stroke-dasharray:3.7843,6.6226;}
	.st16{fill:none;stroke:#C346FF;stroke-width:3.25;stroke-linecap:round;stroke-linejoin:round;stroke-dasharray:4.0711,7.1244;}
	.st17{fill:none;stroke:#C346FF;stroke-width:3.25;stroke-linecap:round;stroke-linejoin:round;stroke-dasharray:3.9175,6.8557;}
	.st18{fill:none;stroke:#C346FF;stroke-width:3.25;stroke-linecap:round;stroke-linejoin:round;stroke-dasharray:3.9677,6.9435;}
	.st19{fill:none;stroke:#C346FF;stroke-width:3.25;stroke-linecap:round;stroke-linejoin:round;stroke-dasharray:3.99,6.9825;}
	.st20{fill:none;stroke:#C346FF;stroke-width:3.25;stroke-linecap:round;stroke-linejoin:round;stroke-dasharray:4.8487,8.4853;}
	.st21{fill:none;stroke:#C346FF;stroke-width:3.25;stroke-linecap:round;stroke-linejoin:round;stroke-dasharray:3.911,6.8443;}
	.st22{fill:none;stroke:#C346FF;stroke-width:3.25;stroke-linecap:round;stroke-linejoin:round;stroke-dasharray:3.9082,6.8394;}
	.st23{fill:none;stroke:#C346FF;stroke-width:3.25;stroke-linecap:round;stroke-linejoin:round;stroke-dasharray:3.8757,6.7825;}
	.st24{fill:none;stroke:#C346FF;stroke-width:3.25;stroke-linecap:round;stroke-linejoin:round;stroke-dasharray:4.1148,7.201;}
	.st25{fill:none;stroke:#C346FF;stroke-width:3.25;stroke-linecap:round;stroke-linejoin:round;stroke-dasharray:4.0223,7.039;}
	.st26{fill:none;stroke:#C346FF;stroke-width:3.25;stroke-linecap:round;stroke-linejoin:round;stroke-dasharray:4.0042,7.0074;}
	.st27{fill:none;stroke:#000000;stroke-width:3.25;stroke-linecap:round;stroke-linejoin:round;stroke-dasharray:4.0362,7.0633;}
	.st28{fill:none;stroke:#C346FF;stroke-width:3.25;stroke-linecap:round;stroke-linejoin:round;stroke-dasharray:4.0362,7.0633;}
	.st29{fill:none;stroke:#C346FF;stroke-width:3.25;stroke-linecap:round;stroke-linejoin:round;stroke-dasharray:3.7919,6.6358;}
	.st30{fill:none;stroke:#C346FF;stroke-width:3.25;stroke-linecap:round;stroke-linejoin:round;stroke-dasharray:4.029,7.0508;}
	.st31{fill:none;stroke:#C346FF;stroke-width:3.25;stroke-linecap:round;stroke-linejoin:round;stroke-dasharray:4.013,7.0227;}
	.st32{fill:none;stroke:#C346FF;stroke-width:3.25;stroke-linecap:round;stroke-linejoin:round;stroke-dasharray:4.0164,7.0288;}
	.st33{fill:none;stroke:#C346FF;stroke-width:3.25;stroke-linecap:round;stroke-linejoin:round;stroke-dasharray:3.8996,6.8243;}
	.st34{fill:none;stroke:#C346FF;stroke-width:3.25;stroke-linecap:round;stroke-linejoin:round;stroke-dasharray:4.1149,7.201;}
	.st35{fill:none;stroke:#C346FF;stroke-width:3.25;stroke-linecap:round;stroke-linejoin:round;stroke-dasharray:3.5562,6.2234;}
	.st36{fill:none;stroke:#C346FF;stroke-width:3.25;stroke-linecap:round;stroke-linejoin:round;stroke-dasharray:3.998,6.9964;}
	.st37{fill:none;stroke:#C346FF;stroke-width:3.25;stroke-linecap:round;stroke-linejoin:round;stroke-dasharray:3.6971,6.47;}
	.st38{fill:none;stroke:#C346FF;stroke-width:3.25;stroke-linecap:round;stroke-linejoin:round;stroke-dasharray:4.1003,7.1756;}
	.st39{fill:none;stroke:#C346FF;stroke-width:3.25;stroke-linecap:round;stroke-linejoin:round;stroke-dasharray:3.6503,6.388;}
	.st40{fill:none;stroke:#C346FF;stroke-width:3.25;stroke-linecap:round;stroke-linejoin:round;stroke-dasharray:3.8454,6.7295;}
	.st41{fill:none;stroke:#C346FF;stroke-width:3.25;stroke-linecap:round;stroke-linejoin:round;stroke-dasharray:3.9566,6.924;}
	.st42{fill:none;stroke:#C346FF;stroke-width:3.25;stroke-linecap:round;stroke-linejoin:round;stroke-dasharray:3.9517,6.9155;}
	.st43{fill:none;stroke:#C346FF;stroke-width:3.25;stroke-linecap:round;stroke-linejoin:round;stroke-dasharray:4.0927,7.1622;}
	.st44{fill:none;stroke:#C346FF;stroke-width:3.25;stroke-linecap:round;stroke-linejoin:round;stroke-dasharray:3.555,6.2212;}
	.st45{fill:none;stroke:#C346FF;stroke-width:3.25;stroke-linecap:round;stroke-linejoin:round;stroke-dasharray:3.975,6.9562;}
	.st46{fill:none;stroke:#C346FF;stroke-width:3.25;stroke-linecap:round;stroke-linejoin:round;stroke-dasharray:4.0137,7.0239;}
	.st47{fill:none;stroke:#C346FF;stroke-width:3.25;stroke-linecap:round;stroke-linejoin:round;stroke-dasharray:3.8218,6.6881;}
	.st48{fill:none;stroke:#C346FF;stroke-width:3.25;stroke-linecap:round;stroke-linejoin:round;stroke-dasharray:3.8918,6.8106;}
	.st49{fill:none;stroke:#C346FF;stroke-width:3.25;stroke-linecap:round;stroke-linejoin:round;stroke-dasharray:3.7511,6.5644;}
	.st50{fill:none;stroke:#C346FF;stroke-width:3.25;stroke-linecap:round;stroke-linejoin:round;stroke-dasharray:4.071,7.1243;}
	.st51{fill:none;stroke:#C346FF;stroke-width:3.25;stroke-linecap:round;stroke-linejoin:round;stroke-dasharray:4.0058,7.0102;}
	.st52{fill:none;stroke:#000000;stroke-width:3.25;stroke-linecap:round;stroke-linejoin:round;stroke-dasharray:3.9662,6.9409;}
	.st53{fill:none;stroke:#C346FF;stroke-width:3.25;stroke-linecap:round;stroke-linejoin:round;stroke-dasharray:3.9662,6.9409;}
	.st54{fill:none;stroke:#C346FF;stroke-width:3.25;stroke-linecap:round;stroke-linejoin:round;stroke-dasharray:3.9779,6.9613;}
	.st55{fill:none;stroke:#C346FF;stroke-width:3.25;stroke-linecap:round;stroke-linejoin:round;stroke-dasharray:4.0381,7.0666;}
	.st56{fill:none;stroke:#C346FF;stroke-width:3.25;stroke-linecap:round;stroke-linejoin:round;stroke-dasharray:3.9985,6.9974;}
	.st57{fill:none;stroke:#C346FF;stroke-width:3.25;stroke-linecap:round;stroke-linejoin:round;stroke-dasharray:4.015,7.0262;}
	.st58{fill:none;stroke:#C346FF;stroke-width:3.25;stroke-linecap:round;stroke-linejoin:round;stroke-dasharray:3.8736,6.7788;}
	.st59{fill:none;stroke:#C346FF;stroke-width:3.25;stroke-linecap:round;stroke-linejoin:round;stroke-dasharray:4.1513,7.2648;}
	.st60{fill:none;stroke:#C346FF;stroke-width:3.25;stroke-linecap:round;stroke-linejoin:round;stroke-dasharray:4.0878,7.1536;}
	.st61{fill:none;stroke:#C346FF;stroke-width:3.25;stroke-linecap:round;stroke-linejoin:round;stroke-dasharray:3.8729,6.7776;}
	.st62{fill:none;stroke:#C346FF;stroke-width:3.25;stroke-linecap:round;stroke-linejoin:round;stroke-dasharray:4.2591,7.4535;}
	.st63{fill:none;stroke:#C346FF;stroke-width:3.25;stroke-linecap:round;stroke-linejoin:round;stroke-dasharray:4.2012,7.3521;}
	.st64{fill:none;stroke:#C346FF;stroke-width:3.25;stroke-linecap:round;stroke-linejoin:round;stroke-dasharray:4.694,8.2145;}
	.st65{fill:none;stroke:#C346FF;stroke-width:3.25;stroke-linecap:round;stroke-linejoin:round;stroke-dasharray:4.0054,7.0095;}
	.st66{fill:none;stroke:#C346FF;stroke-width:3.25;stroke-linecap:round;stroke-linejoin:round;stroke-dasharray:4.0102,7.0179;}
	.st67{fill:none;stroke:#C346FF;stroke-width:3.25;stroke-linecap:round;stroke-linejoin:round;stroke-dasharray:3.4794,6.089;}
	.st68{fill:none;stroke:#C346FF;stroke-width:3.25;stroke-linecap:round;stroke-linejoin:round;stroke-dasharray:3.9884,6.9796;}
	.st69{fill:none;stroke:#000000;stroke-width:3.25;stroke-linecap:round;stroke-linejoin:round;stroke-dasharray:4.0369,7.0646;}
	.st70{fill:none;stroke:#C346FF;stroke-width:3.25;stroke-linecap:round;stroke-linejoin:round;stroke-dasharray:4.0369,7.0646;}
	.st71{fill:none;stroke:#C346FF;stroke-width:3.25;stroke-linecap:round;stroke-linejoin:round;stroke-dasharray:3.9791,6.9634;}
	.st72{fill:none;stroke:#C346FF;stroke-width:3.25;stroke-linecap:round;stroke-linejoin:round;stroke-dasharray:3.9434,6.901;}
	.st73{fill:none;stroke:#C346FF;stroke-width:3.25;stroke-linecap:round;stroke-linejoin:round;stroke-dasharray:3.8002,6.6504;}
	.st74{fill:none;stroke:#C346FF;stroke-width:3.25;stroke-linecap:round;stroke-linejoin:round;stroke-dasharray:4.0686,7.1201;}
	.st75{fill:none;stroke:#C346FF;stroke-width:3.25;stroke-linecap:round;stroke-linejoin:round;stroke-dasharray:4.0092,7.0161;}
	.st76{fill:none;stroke:#C346FF;stroke-width:3.25;stroke-linecap:round;stroke-linejoin:round;stroke-dasharray:4.1001,7.1752;}
	.st77{fill:none;stroke:#C346FF;stroke-width:3.25;stroke-linecap:round;stroke-linejoin:round;stroke-dasharray:4.1805,7.3159;}
	.st78{fill:none;stroke:#C346FF;stroke-width:3.25;stroke-linecap:round;stroke-linejoin:round;stroke-dasharray:4.1225,7.2143;}
	.st79{fill:none;stroke:#C346FF;stroke-width:3.25;stroke-linecap:round;stroke-linejoin:round;stroke-dasharray:4.5985,8.0473;}
	.st80{fill:none;stroke:#C346FF;stroke-width:3.25;stroke-linecap:round;stroke-linejoin:round;stroke-dasharray:4.068,7.119;}
	.st81{fill:none;stroke:#C346FF;stroke-width:3.25;stroke-linecap:round;stroke-linejoin:round;stroke-dasharray:4.028,7.049;}
	.st82{fill:none;stroke:#C346FF;stroke-width:3.25;stroke-linecap:round;stroke-linejoin:round;stroke-dasharray:3.4167,5.9793;}
	.st83{fill:none;stroke:#C346FF;stroke-width:3.25;stroke-linecap:round;stroke-linejoin:round;stroke-dasharray:4.0476,7.0834;}
	.st84{fill:none;stroke:#C346FF;stroke-width:3.25;stroke-linecap:round;stroke-linejoin:round;stroke-dasharray:3.9053,6.8342;}
	.st85{fill:none;stroke:#C346FF;stroke-width:3.25;stroke-linecap:round;stroke-linejoin:round;stroke-dasharray:3.9914,6.985;}
	.st86{fill:none;stroke:#C346FF;stroke-width:3.25;stroke-linecap:round;stroke-linejoin:round;stroke-dasharray:4.0775,7.1357;}
	.st87{fill:none;stroke:#C346FF;stroke-width:3.25;stroke-linecap:round;stroke-linejoin:round;stroke-dasharray:3.9894,6.9815;}
	.st88{fill:none;stroke:#C346FF;stroke-width:3.25;stroke-linecap:round;stroke-linejoin:round;stroke-dasharray:4.0144,7.0252;}
	.st89{fill:none;stroke:#C346FF;stroke-width:3.25;stroke-linecap:round;stroke-linejoin:round;stroke-dasharray:3.9932,6.9881;}
	.st90{fill:none;stroke:#C346FF;stroke-width:3.25;stroke-linecap:round;stroke-linejoin:round;stroke-dasharray:3.9986,6.9975;}
	.st91{fill:none;stroke:#C346FF;stroke-width:3.25;stroke-linecap:round;stroke-linejoin:round;stroke-dasharray:3.9732,6.9532;}
	.st92{fill:none;stroke:#C346FF;stroke-width:3.25;stroke-linecap:round;stroke-linejoin:round;stroke-dasharray:4.0057,7.0099;}
	.st93{fill:none;stroke:#C346FF;stroke-width:3.25;stroke-linecap:round;stroke-linejoin:round;stroke-dasharray:3.9983,6.997;}
	.st94{fill:none;stroke:#C346FF;stroke-width:3.25;stroke-linecap:round;stroke-linejoin:round;stroke-dasharray:4.01,7.0176;}
	.st95{fill:none;stroke:#C346FF;stroke-width:3.25;stroke-linecap:round;stroke-linejoin:round;stroke-dasharray:3.9989,6.9981;}
	.st96{fill:none;stroke:#C346FF;stroke-width:3.25;stroke-linecap:round;stroke-linejoin:round;stroke-dasharray:4.0043,7.0076;}
	.st97{fill:none;stroke:#C346FF;stroke-width:2.75;stroke-linecap:round;stroke-linejoin:round;}
	.st98{fill:none;stroke:#C346FF;stroke-width:2.75;stroke-linecap:round;stroke-linejoin:round;stroke-dasharray:3.827,6.6973;}
	.st99{fill:none;stroke:#C346FF;stroke-width:2.75;stroke-linecap:round;stroke-linejoin:round;stroke-dasharray:3.4553,6.0468;}
	.st100{fill:none;stroke:#C346FF;stroke-width:2.75;stroke-linecap:round;stroke-linejoin:round;stroke-dasharray:3.7378,6.5411;}
	.st101{fill:none;stroke:#C346FF;stroke-width:2.75;stroke-linecap:round;stroke-linejoin:round;stroke-dasharray:4.2102,7.3678;}
	.st102{fill:none;stroke:#C346FF;stroke-width:2.75;stroke-linecap:round;stroke-linejoin:round;stroke-dasharray:3.7142,6.4998;}
	.st103{fill:none;stroke:#C346FF;stroke-width:2.75;stroke-linecap:round;stroke-linejoin:round;stroke-dasharray:3.4961,6.1182;}
	.st104{fill:none;stroke:#C346FF;stroke-width:2.75;stroke-linecap:round;stroke-linejoin:round;stroke-dasharray:4.5312,7.9295;}
	.st105{fill:none;stroke:#000000;stroke-width:1.75;stroke-linecap:round;stroke-linejoin:round;stroke-miterlimit:10;}
	.st106{fill:none;stroke:#C346FF;stroke-width:1.75;stroke-linecap:round;stroke-linejoin:round;stroke-miterlimit:10;}
	.st107{fill:none;stroke:#000000;stroke-width:2.75;stroke-linecap:round;stroke-linejoin:round;stroke-miterlimit:10;}
	.st108{fill:none;stroke:#C346FF;stroke-width:2.75;stroke-linecap:round;stroke-linejoin:round;stroke-miterlimit:10;}
	.st109{fill:none;stroke:#000000;stroke-width:3.5;stroke-linecap:round;stroke-linejoin:round;stroke-miterlimit:10;}
	.st110{fill:none;stroke:#C346FF;stroke-width:3.5;stroke-linecap:round;stroke-linejoin:round;stroke-miterlimit:10;}
</style>
<metadata>
	<sfw  xmlns="&ns_sfw;">
		<slices></slices>
		<sliceSourceBounds  bottomLeftOrigin="true" height="4152" width="7622.8" x="-1939.8" y="2598"></sliceSourceBounds>
	</sfw>
</metadata>
<g id="FILL-BACKGROUND">
	<rect class="st0" width="1000" height="700"/>
</g>
<g id="N-DIMENSIONS">
	<text transform="matrix(1 0 0 1 458.5742 57.9854)" class="st1 st2 st3">5’9” | 1.75 m</text>
</g>
<g id="N-TEXT">
	<g id="MTEXT_10_">
		<text transform="matrix(1 0 0 1 773.7212 647.9844)" class="st1 st4 st5">Jon Snow</text>
	</g>
	<g id="MTEXT_8_">
		<text transform="matrix(1 0 0 1 167.5903 647.9844)" class="st1 st4 st5">Arya Stark</text>
	</g>
	<g id="MTEXT_7_">
		<text transform="matrix(1 0 0 1 448.8945 647.9844)" class="st1 st4 st5">Sansa Stark</text>
	</g>
</g>
<g id="AG-DIAGRAM">
	<g id="POLYLINE_254_">
		<g>
			<g>
				<path class="st8" d="M254.4,616.8c0.6,0,1.3,0,2-0.1"/>
				<path class="st29" d="M260,612c0-1.3-0.2-2.7-0.3-3.6c-0.7-4.5-1.2-9.3-2.5-13.7c-0.5-1.8-1.2-3.7-1.4-5.6
					c-0.2-1.9,0.2-3.7,0.4-5.6c0.3-2.2,0.1-4.2-0.2-6.4c-0.1-1.1-0.1-2.1,0-3.1"/>
				<path class="st8" d="M256.4,570.7c0.1-0.7,0.1-1.3,0.1-2c0.7,0.1,1.3,0.1,2,0.2"/>
				<path class="st30" d="M265.5,569.9c1.3,0.2,2.6,0.4,3.8,0.6c2.1,0.3,5.7,1.3,7.6-0.2c0.8-0.6,1-1.6,1.1-2.6
					c0.2-1.7,0.1-3.4,0-5.1c-0.2-4.5-0.5-9-0.8-13.5c-0.5-8.3-0.9-16.6-1.3-24.8c-0.4-9.1-0.5-18.3-0.8-27.4c0-0.8-0.1-1.5-0.1-2.3
					c0-0.7,0.3-0.5,1-0.5c1.1-0.1,2.7-0.1,3.7-0.7c0.9-0.5,0.8-1.6,0.6-2.4c-0.3-2.1-1-4.1-1.5-6.1c-2.2-8.4-3.6-16.9-5.2-25.4
					c-1.7-8.8-3.2-17.6-4.8-26.4c-0.4-2-0.7-3.9-1.1-5.9c0-0.2-0.2-0.7-0.2-0.9c0.1-0.4,0.7-0.8,0.9-1.2c1.1-2.2,1.1-5.1,1.2-7.5
					c0.1-8.1-0.2-16.4-0.6-24.5c-0.2-4.5-0.4-8.9-0.7-13.3c-0.3-3.9-0.5-7.9-1-11.8c-0.3-2.1-0.9-3.8-2.7-5
					c-0.7-0.5-0.7-0.4-0.7-1.2c-0.1-1.1-0.1-2.2-0.2-3.3c-0.2-3-0.4-6-0.6-9c-0.1-1.4-0.2-2.8-0.3-4.2c-0.1-1.3-0.2-2.6-0.3-3.9
					c-0.1-1.2-0.4-2.6-0.3-3.8c0-0.4-0.1-0.2,0.2-0.5c0.3-0.3,0.9-0.4,1.2-0.6c0.4-0.2,0.7-0.4,1.1-0.6c0.5-0.3,0.9-0.8,1.3-1.2
					c1.9-2.4,2.9-5.6,3.6-8.5c0.9-3.6,1.3-7.2,1.5-10.9c0.4-8.3-0.2-16.7-0.5-25.1c-0.4-8.4-0.7-16.7-1.6-25.1
					c0-0.3-0.3-1.1-0.1-1.4c0.1-0.1,0.5-0.2,0.6-0.3c0.6-0.3,1.1-0.7,1.6-1.1c1.6-1.2,3-2.6,4.6-3.9c0.9-0.7,2.3-1.6,2.3-2.9
					c0-0.8-0.4-1.6-0.9-2.2c-1.8-2.5-4.7-4.2-7.3-5.8c-3.5-2.2-7-4.4-10.7-6.4c-1.6-0.9-3.3-1.7-5-2.5c-0.9-0.4-1.7-0.7-2.6-1.1
					c-0.4-0.2-0.8-0.3-1.2-0.4c-0.7-0.2-0.8-0.3-1-0.9c-0.8-2.3-2.7-3.8-4-5.8c-1.9-3.1-2.6-6.8-3.5-10.2c-1-3.9-2-7.8-3.7-11.5
					c-0.8-1.8-1.7-3.6-2.6-5.4c-0.3-0.5-0.6-1.1-0.8-1.7c-0.2-0.5-0.2-0.3,0.1-0.7c0.4-0.5,0.6-0.9,0.9-1.5
					c1.4-3.3,2.4-7.2,2.7-10.8"/>
				<path class="st8" d="M238.6,185c-0.3-0.5-0.9-0.8-1.8-0.6c0.1-0.7,0.1-1.3,0.1-2"/>
				<path class="st31" d="M236.4,175.4c-0.4-2.6-0.9-5.2-1.4-7.8c-1-4.9-2.3-10.1-5.9-13.7c-3.7-3.7-9.1-5.6-14.2-6.5
					c-5.2-0.9-10.5-0.5-15.3,2c-2.4,1.3-4.6,2.9-6.7,4.6c-2.1,1.8-4.1,3.7-5.5,6c-2.9,4.7-3,10.4-3.2,15.7c-0.1,1.6-0.1,3.3-0.2,4.9
					c0,1.3,0.1,2.6,0,3.9c0,0.4,0,0.3-0.3,0.5c-0.2,0.1-0.4,0.1-0.6,0.2c-0.4,0.2-0.6,0.5-0.7,0.9c-0.2,0.7-0.2,1.6-0.1,2.4
					c0.2,2.8,0.8,5.6,1.6,8.2c0.4,1.5,1,3.2,2.4,4c0.1,0.1,0.4,0.1,0.4,0.2c0.2,0.3-0.1,0.8-0.2,1.2c-0.3,0.7-0.5,1.5-0.8,2.2
					c-0.5,1.4-1.1,2.8-1.6,4.2c-1.1,2.7-2.2,5.4-3.4,8.1c-1.4,3.2-2.7,6.3-4.1,9.5c-1.1,2.3-2.2,4.7-4,6.7c-1.2,1.3-2.9,2.2-3.9,3.7
					c-0.3,0.4-0.4,0.8-0.6,1.3c-0.3,0.8-0.4,0.7-1.2,1.1c-0.7,0.3-1.4,0.5-2.1,0.8c-5.4,2.2-11,4.5-15.5,8.3
					c-3,2.5-6.4,6.3-7.1,10.4c-0.2,1.5,0.4,2.5,1.9,3c0.4,0.1,0.8,0.2,1.2,0.3c0.3,0.1,2.1,0.2,2.4,0.5c0.2,0.3,0,1.6,0,2
					c0,1.1,0,2.3,0,3.4c-0.1,6.2,0,12.5,0.2,18.7c0.2,5.9,0.5,11.8,0.9,17.6c0.5,6.8,0.9,13.5,1.6,20.3c0.5,5.4,0.7,11.3,3.5,16
					c1.2,2,3,3.2,5.2,3.8c0.7,0.2,1.3,0.3,2,0.4c0.3,0,0.5,0,0.8,0.1c0.4,0.1,0.3,0,0.4,0.3c0.1,0.3-0.1,0.9-0.1,1.2
					c-0.1,0.6-0.1,1.2-0.2,1.8c-0.1,0.7-0.1,1.4-0.2,2.1c-0.5,3.3-1.4,6.6-2.1,9.8c-0.2,1.1-0.5,2.2-0.7,3.2"/>
				<path class="st8" d="M158.2,366.6c0,0.2-0.1,0.5-0.2,0.6c0,0,0,0.2,0,0.2c-0.1,0.1-0.9-0.2-1.1-0.2c-0.1,0.7-0.3,1.3-0.4,2"/>
				<path class="st8" d="M156.3,370c-0.1,0.7-0.3,1.3-0.4,2c-0.7-0.1-1.3-0.3-2-0.4"/>
				<path class="st8" d="M151.1,370.9c-0.7-0.1-1.3-0.3-2-0.4c-0.1,0.3-0.4,1.3-0.5,1.9"/>
				<path class="st32" d="M154.9,374.4c0.1,0,0.1,0.1,0.2,0.1c0.2,0.1,0.2,0,0.2,0.1c0.1,0.1-0.2,0.8-0.2,1c-0.5,2.5-1.1,5-1.6,7.5
					c-0.1,0.4-0.7,1.9-0.5,2.3c0.1,0.2,0.9,0,1.1,0.3c0.1,0.2-0.2,1-0.2,1.3c-0.1,0.3-0.1,1.1-0.3,1.3c-0.1,0.1-0.5,0.1-0.6,0.1
					c-0.4,0.1-0.8,0.2-1.1,0.4c-1.2,0.6-2.1,1.7-2.2,3.1c-0.1,1.4,0.7,2.6,1.7,3.5c0.3,0.2,0.6,0.4,0.7,0.7c0.1,0.3-0.2,0.8-0.2,1.1
					c-0.4,1.8-0.7,3.5-1.1,5.3c-1.5,6.9-2.9,13.7-4.4,20.6c-2.1,9.9-4.2,19.8-6.3,29.8c-2.4,11.3-4.8,22.5-7.2,33.8
					c-2.3,10.9-4.6,21.7-6.9,32.6c-1.9,8.9-3.8,17.7-5.6,26.6c-1.1,5.1-2.2,10.2-3.2,15.4c-0.8,3.7-1.6,7.5-1.6,11.3"/>
				<path class="st8" d="M115.7,576c0.1,0.7,0.3,1.3,0.5,1.9c0.4-0.5,0.9-1,1.2-1.6"/>
				<path class="st21" d="M120.2,570.2c0.3-1,0.6-2.1,0.9-3.1c0.5-1.9,0.9-3.8,1.3-5.7c0.8-3.6,1.5-7.1,2.3-10.7
					c1.2-5.5,2.3-11,3.5-16.5c1.4-6.8,2.9-13.5,4.3-20.3c1.5-7.3,3.1-14.6,4.6-22c1.5-7.1,3-14.2,4.5-21.3
					c1.3-6.2,2.6-12.4,3.9-18.5c1-4.6,1.9-9.1,2.9-13.7c0.1-0.5,0.2-1,0.3-1.5"/>
				<path class="st8" d="M149.4,433.4c0.1-0.6,0.2-1.1,0.4-1.7c0-0.1,0-0.2,0.1-0.3c-0.1,0.7-0.1,1.3-0.2,2"/>
				<path class="st33" d="M149,440.3c-0.1,1.4-0.3,2.9-0.4,4.3c-0.8,8.5-1.6,16.9-2.5,25.4c-0.6,5.8-1.1,11.5-1.7,17.3
					c-0.3,2.9-0.5,5.9-0.8,8.8c-0.7,8-1.4,16-2.1,24c-0.7,7.6-1.3,15.2-2,22.8c-0.4,4.2-0.7,8.4-1,12.6c-0.4,5.3-1,10.8-0.7,16.1
					c0.1,1.2,0.2,3.3,1.4,3.9c1.6,0.8,4.4-0.9,5.8-1.4c4.7-1.8,9.6-3.1,14.6-4"/>
				<path class="st8" d="M163.1,569.6c0.7-0.1,1.3-0.2,2-0.3c0,0.7,0,1.3,0,2"/>
				<path class="st34" d="M165,578.5c0,1-0.1,2.1-0.1,3.1c0,1.5,0.5,2.9,0.5,4.4c0,1.5-0.6,2.9-1,4.3c-0.5,1.8-0.7,3.7-1.2,5.6
					c-0.7,2.4-1.4,4.7-2,7.1c-0.4,1.6-0.8,3.4-1.1,5.1"/>
				<path class="st8" d="M159.9,611.8c0,0.7,0.1,1.3,0.2,2"/>
			</g>
		</g>
		<g>
			<g>
				<path class="st8" d="M181.7,616.7c0.7-0.1,1.3-0.2,2-0.4"/>
				<path class="st35" d="M187,611.4c0.8-3.7,0.3-7.5-0.1-11.2c-0.2-2.1-0.4-4.1-0.3-6.2c0.1-2.1,0.6-4.2,0.7-6.3
					c0.1-2.3-0.1-4.6,0-6.9c0.1-1.8,0.3-3.5,0.6-5.2"/>
				<path class="st8" d="M188.3,572.5c0.1-0.7,0.2-1.3,0.3-2c0.7,0.1,1.3,0.2,2,0.3"/>
				<path class="st36" d="M197.5,571.7c2.7,0.3,5.5,0.4,8.2,0.3c5.6-0.2,11.2-1,16.8-1.8c1.4-0.2,2.9-0.4,4.3-0.6"/>
				<path class="st8" d="M230.3,569.1c0.7-0.1,1.3-0.2,2-0.3c0,0.7,0.1,1.3,0.1,2"/>
				<path class="st37" d="M233.5,577.2c0.3,1.5,0.6,3,0.6,4.6c0.1,2.2,0,4.4,0.2,6.6c0.1,2.2,0.7,4.2,0.9,6.4
					c0.5,4.4-0.6,8.7-0.7,13.1c0,2,0,4.6,1.1,6.5"/>
				<path class="st8" d="M238.3,616.2c0.6,0.2,1.3,0.3,2,0.4"/>
			</g>
		</g>
	</g>
	<g id="POLYLINE_253_">
		<g>
			<g>
				<path class="st8" d="M912.3,615c0.5-0.4,1-0.9,1.3-1.5"/>
				<path class="st38" d="M912.9,606.9c-1.5-1.5-3.5-2.6-5.4-3.5c-2.9-1.5-6-2.6-9.1-3.7c-3-1.1-6-2-8.9-3.2
					c-1.8-0.8-3.7-1.8-5.1-3.3c-1.2-1.3-1.9-3-2.5-4.7c-0.9-2.5-1.8-4.6-3.5-6.7c-2.1-2.6-4.8-5.3-3-8.8c0.4-0.7,1-1.6,0.9-2.5
					c-0.1-0.9-0.8-1.6-1.3-2.3c-0.7-1-1.2-1.9-1.5-3.1c-0.6-2.9-0.2-6.1,0-9c0.1-3.1,0-6.1-0.2-9.2c-0.5-6.8-1.4-13.5-1.9-20.3
					c-0.3-3.6-0.4-7.1-0.6-10.7c-0.1-2.5-0.2-5.1-0.6-7.6"/>
				<path class="st8" d="M869.4,504.9c-0.4-0.5-0.9-0.7-1.8-0.2c0.2-0.6,0.5-1.3,0.6-1.9"/>
				<path class="st39" d="M866.4,496.7c-0.2-0.6-0.2-1.2,0-1.8c0.3-1.2,0.8-2.2,0.8-3.4c0-0.4-0.1-1-0.1-1.5"/>
				<path class="st8" d="M869.1,488.1c0.6-0.3,1.2-0.5,1.8-0.8c0.1,0.7,0.3,1.3,0.4,2"/>
				<path class="st40" d="M872.7,495.9c0.5,2.4,1,4.7,1.5,7.1c0.9,4.5,1.9,9.1,2.9,13.6c1,4.7,2.1,9.3,3.3,14
					c1.1,4.4,2.3,8.8,3.6,13.1c1,3.5,2.1,7,3.3,10.5"/>
				<path class="st8" d="M888.3,557.3C888.3,557.3,888.3,557.3,888.3,557.3c0.2,0.6,0.5,1.3,0.7,1.9c0-0.7-0.1-1.3-0.2-2"/>
				<path class="st41" d="M888.2,550.3c-0.3-3-0.7-6-1.1-9.1c-0.8-6.2-1.8-12.3-2.9-18.4c-1-5.9-2.2-11.9-3.4-17.8
					c-1.3-6.5-2.7-13-4.1-19.6c0-0.2-0.3-0.7-0.2-0.9c0.1-0.3,1.2-0.7,1.6-0.9c1.3-0.7,2.5-1.4,3.7-2.1c1.7-1,3.4-2.2,4.7-3.7
					c2.3-2.8,1.5-6.4,0.6-9.7c-1.6-5.7-3.5-11.3-5.8-16.7c-2.3-5.5-5.2-10.7-7.8-16.1c-2.7-5.5-4.9-11.2-7-16.9
					c-2-5.3-3.7-10.7-5.5-16"/>
				<path class="st8" d="M859.9,399.4c-0.2-0.6-0.4-1.3-0.6-1.9c0.7-0.1,1.3-0.1,2-0.3"/>
				<path class="st42" d="M867.7,394.9c1.5-0.8,2.9-1.8,4.2-2.9c2.5-2.2,4-4.8,4.3-8.1c0.2-2.1,0.2-4.2,0.8-6.3
					c0.7-2.3,1.3-4.5,1.2-6.9c0-1.2-0.1-2.5-0.3-3.7c-0.1-0.5-0.4-1.3-0.4-1.8c0-0.5,0.7-1,1-1.5c0.9-1.2,1.7-2.4,2.1-3.8
					c1.2-3.7,0.3-8.1-0.3-11.8c-0.7-4.8-1.5-9.5-2.1-14.3c-0.9-6.9-1.9-13.9-2.8-20.8c-0.5-4.1-0.9-8.4-2.4-12.3
					c-0.4-1-0.9-1.9-1.7-2.5c-0.3-0.2-0.8-0.3-1-0.6c-0.3-0.4-0.2-1.5-0.3-2c-0.2-1.2-0.5-2.5-0.8-3.7c-0.5-2.3-1.2-4.7-2-6.9
					c-0.8-2.3-1.9-4.4-2.6-6.8c-0.8-2.6-0.8-5.3-1-7.9c-0.2-2.4-0.6-4.7-1.2-7.1c-1.2-4.9-2.9-9.6-4.7-14.2
					c-2.1-5.6-4.4-11.1-6.6-16.6c-1.6-4-2.9-8.1-4-12.3c-1.6-5.7-3-11.5-4.8-17.1c-1.5-4.9-3.3-9.9-5.4-14.5c-1.1-2.5-2.5-5-5.2-6.2
					c-0.8-0.4-1.7-0.5-2.5-0.9c-0.5-0.2-0.3-0.3-0.5-0.9c-0.1-0.4-0.2-0.7-0.5-1c-0.5-0.6-1.2-0.8-1.8-1.1c-1.2-0.5-2.4-0.8-3.6-1.2
					c-2.5-0.8-5-1.6-7.4-2.4c-1.2-0.4-2.5-0.9-3.7-1.3c-0.7-0.3-0.9-0.3-1.3-0.9c-0.3-0.4-0.6-0.6-1-0.9c-1.9-1.2-4.2-1.9-6.3-2.7
					c-2.7-1.1-5.3-2.1-8-3.2c-0.2-0.1-0.4-0.2-0.6-0.2"/>
				<path class="st8" d="M791.5,164c-0.4-0.5-0.7-1.3-1-1.7c0.6-0.2,1.3-0.4,1.8-0.8"/>
				<path class="st43" d="M792.4,155.1c0-1.4,0.2-2.8-0.2-4.1c-0.6-2.2-3.3-2.9-4.7-4.5c-0.5-0.5-0.9-1.1-1.4-1.8
					c-0.3-0.5-0.7-1-0.8-1.5c-0.1-0.6,0-1.2,0-1.8c0-2.2-0.2-4.5-0.7-6.7c-0.5-2.2-1.5-4.2-2.4-6.3c-0.6-1.4-1.3-2.8-1.6-4.3
					c-0.1-0.3-0.1-0.6-0.1-0.9c1-1.9,1.3-3.5,1.1-5.7c-0.4-3.5-1.4-7-2.6-10.3c-2.1-5.6-5.7-11.9-11.8-13.7c-3-0.9-5.9-2.4-9-2.8
					c-3.3-0.5-6.7,0.3-9.9,1.2c-5.6,1.6-12,3.4-15.7,8.3c-1.7,2.3-3,5-3.6,7.8c-0.5,2.5-0.1,5.3-1.1,7.8c-0.8,1.9-2.5,3.3-2.5,5.5
					c0,2.6,1.5,5.1,2.5,7.3c0.9,2.2,0.9,4.5,1.7,6.7c0.1,0.2,0.3,0.6,0.3,0.8c0,0.1-0.2,0.1-0.2,0.3c-0.1,0.2-0.3,0.4-0.4,0.7
					c-0.1,0.3-0.2,0.7-0.3,1c-0.1,0.7-0.1,1.4-0.1,2.2c0,0.3,0.1,0.6,0.1,0.8c-0.1,0.3-0.5,0.7-0.7,1c-0.3,0.4-0.5,0.8-0.6,1.3
					c-0.2,1,0.1,2,0.3,3c0.5,2,0.7,3.8-0.7,5.5c-1.5,1.9-3.5,3.3-4.5,5.5c-1.1,2.4-1.2,5.2-0.9,7.8c0.3,2,0.8,4.2,2.2,5.7
					c0.9,1,1.9,1.3,2.9,1.2"/>
				<path class="st8" d="M730.3,171.2c0.6-0.2,1.3-0.2,2-0.1c-0.4,0.5-0.9,1-1.3,1.5"/>
				<path class="st44" d="M726.6,177.1c-3.5,3.4-7.2,6.6-11.3,9.5c-1.1,0.8-2.4,1.6-3.4,2.6c-0.2,0.2-0.4,0.4-0.5,0.6
					c-0.1,0.2,0,0.4,0,0.6c-0.1,0.6-1.6,1.4-2.1,1.8c-2.9,2.2-6.1,4.1-8.7,6.7c-0.4,0.4-0.9,0.9-1.3,1.4"/>
				<path class="st8" d="M697.9,202.9c0,0.1-0.1,0.3,0,0.4c0.1,0.7,0.9,0.4,1.4,0.3c-0.2,0.6-0.4,1.3-0.6,1.9"/>
				<path class="st45" d="M696.4,212.1c-0.7,1.9-1.4,3.8-2.1,5.8c-1.7,4.5-3.7,9-5.1,13.6c-1.3,4.2-1.7,8.6-1.9,13
					c-0.3,5.5-0.6,11-1.1,16.5c-0.5,4.8-1,9.7-1.5,14.5c-0.3,2.3-0.6,4.5-1.2,6.7c-0.5,2.2-1.2,4.4-1.6,6.6c-0.3,1.7-0.3,3.3-0.1,5
					c0.3,2,0.9,4,1.1,6c0.1,1,0.1,2-0.2,3.1c-0.3,1.2-0.8,2.3-0.8,3.5c-0.1,1.7,0.5,3.3,0.8,4.9c0.3,1.7,0.3,3.4,0.1,5.2
					c-0.3,2.2-0.7,4.3-0.8,6.5c0,1.2,0.1,2.4,0.2,3.6"/>
				<path class="st8" d="M682.9,330c0.2,0.6,0.3,1.3,0.5,1.9c-0.8,0.1-1.4,0.4-1.7,0.9"/>
				<path class="st46" d="M681.7,339.8c0,0.2,0,0.3,0.1,0.5c0.6,5,1.5,9.9,2.7,14.7c1.2,5,2.8,9.8,4,14.8c0.5,2.1,1,4.2,1.2,6.4
					c0.2,2.4,0.1,4.9,0.3,7.3c0.3,4.3,1,9,3.1,12.9c0.5,1,1.1,1.9,2,2.6c0.5,0.5,1.1,0.9,1.8,0.9c0.3,0,0.6-0.1,0.7,0.1
					c0.2,0.2,0.1,1.1,0.1,1.4c0.3,1.8,0.8,3.5,1.8,5.1c0.9,1.5,2.2,2.6,3.5,3.8c0.9,0.8,1.8,1.7,2.4,2.8c0.6,1.1,0.9,2.3,1.7,3.3
					c1.4,1.8,3.6,3,5.7,3.6c0.3,0.1,0.7,0.1,0.9,0.2c0.3,0.2,0.2,0,0.2,0.5c0,1.4-0.1,2.9-0.2,4.4c-0.1,2.5-0.3,5.1-0.4,7.6
					c-0.1,3.9-0.1,7.8-0.2,11.6c-0.1,7.5-0.2,15-0.4,22.4c-0.1,5.8-0.2,11.7-0.3,17.5c-0.1,3.6-0.2,7.2-0.1,10.8
					c0.1,2.6,0.2,5.9,2.1,8.1c1.2,1.4,3.1,1.9,4.9,2.2c4.6,0.7,9.3,0.6,13.9,0.6c3.4,0,6.9,0.1,10.3,0.1c0.7,0,1.1-0.2,1.2,0.5
					c0.2,1.7,0.5,3.4,0.7,5.1c0.6,4.5,1.3,9.1,2,13.6c0.9,5.6,1.8,11.3,2.7,16.9c0.8,4.8,1.6,9.5,2.6,14.3c1,5,2.1,9.8,3.7,14.6
					c0.6,2,1,4.1,1.9,6c0.6,1.3,1.7,2.2,2.6,3.3c1.5,2,1.3,4.4,1.4,6.8c0.1,3.4,0.6,6.4-1.4,9.3c-1.2,1.8-2.8,3.4-4.4,4.8
					c-1.1,1-2.4,1.8-3.3,2.9c-1.3,1.7-1.8,4.2-1.8,6.4"/>
				<path class="st8" d="M751.7,614.1c0.2,0.6,0.5,1.2,1.1,1.6"/>
			</g>
		</g>
		<g>
			<g>
				<path class="st8" d="M787.2,616.3c0.7-0.1,1.3-0.3,1.9-0.6"/>
				<path class="st47" d="M792.5,610.4c0.2-2.4-0.2-4.9-0.7-7.2c-0.8-4.4-2.4-8.9-2.1-13.4c0.1-1.6,0.5-3.3,0.2-5
					c-0.2-1.3-1.4-2.5-1-3.8c0.4-1.3,1.3-2.2,0.9-3.6c-0.4-1.4-1.5-2.5-2-3.8c-1.1-2.6,1.2-4.8,1-7.4c-0.1-1.2-0.5-2.3-1-3.4
					c-1-2.2-2-4.4-2.5-6.8c-0.5-2.8,0.7-5.3,0.7-8.1c0-1.8-0.6-3.6-1-5.4c-0.5-2.2-0.6-4.5-0.6-6.8c0-5.3,0.1-10.5-0.3-15.7
					c-0.2-3.1-0.5-6.1-0.8-9.2"/>
				<path class="st8" d="M783.2,507.6c-0.1-0.7-0.1-1.3-0.2-2c0.7,0,1.3-0.1,2-0.1"/>
				<path class="st48" d="M791.8,505.1c0.4,0,0.8,0,1.2,0c3.2-0.1,6.4,0.3,9.6,0.4c1.5,0,4.1,0.2,4.9-1.4c0.9-1.7,0-4.4-0.2-6.1
					c-0.3-2.1-0.6-4.2-0.9-6.2"/>
				<path class="st8" d="M805.8,488.3c-0.1-0.7-0.2-1.3-0.3-2c0.7,0.2,1.3,0.3,2,0.4"/>
				<path class="st49" d="M814,486.4c3.2-1.1,5.9-3.3,9.2-4.2c0.6-0.2,1.2-0.3,1.8-0.3c0.4,0,1.3-0.3,1.6-0.1
					c0.2,0.1,0.1,0.1,0.2,0.4c0.6,2.8,1,5.7,1.5,8.5c0.3,1.8,0.6,3.6,1.1,5.3c0.3,0.9,0.6,1.7,1.3,2.4c0.4,0.4,0.3,0.5,0.3,1
					c0,0.6,0,1.1,0.1,1.7c0.1,0.8,0.2,1.5,0.3,2.3c0.1,0.7,0.3,1.3,0.5,1.9"/>
				<path class="st8" d="M832.5,508.5c0,0.2,0,0.4,0,0.6c0,0.5,0,0.9,0,1.4c-0.9,0-1.4,0.2-1.8,0.6"/>
				<path class="st50" d="M830.6,518c0.3,1.4,0.6,2.7,0.9,4c1.6,6.7,3.2,13.5,4.3,20.3c1.1,6.5,1.6,13.1,4.2,19.2
					c1.8,4.4,3,9.1,1.5,13.8c-0.5,1.7,0.2,2.9,1.2,4.2c1.1,1.5,2.3,3,2.8,4.9c0.3,1.1,0.3,2.3,0.1,3.5c-0.2,1.2-0.7,2.2-1,3.4
					c-0.3,1.1-0.4,2.2-0.5,3.3c-0.2,3,0.1,6,0.6,8.9c0.3,1.7,0.7,3.3,1.1,4.9c0.3,1.2,0.4,2.5,0.7,3.8"/>
				<path class="st8" d="M848.3,615.2c0.6,0.3,1.3,0.5,1.9,0.6"/>
			</g>
		</g>
	</g>
	<g id="POLYLINE_252_">
		<g>
			<g>
				<line class="st8" x1="72.3" y1="616.7" x2="74.3" y2="616.7"/>
				<line class="st51" x1="81.3" y1="616.7" x2="926" y2="616.7"/>
				<line class="st8" x1="929.5" y1="616.7" x2="931.5" y2="616.7"/>
			</g>
		</g>
	</g>
</g>
<g id="AG-GUIDES">
</g>
<g id="AG-DETAILS">
	<g>
		<g id="POLYLINE_1824_">
			<path class="st106" d="M534.6,203.7c-0.6-2.5-3.1-4.5-5.2-5.6c-2.4-1.3-5.3-2.2-8-1.5c-1.3,0.3-2.4,1.1-2.3,2.5
				c0.1,1.1,0.7,2.1,1.3,2.9c2,2.7,5.5,4.5,8.8,4.9c1.8,0.2,5.3,0.1,5.5-2.3C534.7,204.3,534.7,204,534.6,203.7z"/>
		</g>
		<g id="POLYLINE_1823_">
			<path class="st106" d="M517.9,201.1c1.2,2.9,4.1,5.1,6.9,6.3c2.6,1.2,5.9,1.9,8.6,0.9c2.4-0.9,3.5-3.2,2.6-5.6
				c-0.9-2.6-3.3-4.7-5.6-6c-2.8-1.6-6.5-2.7-9.7-1.7c-0.2,0.1-0.4,0.1-0.5,0.2"/>
		</g>
		<g id="POLYLINE_1822_">
			<path class="st106" d="M529.9,196.4c1.9-1.8,3.2-4,3.9-6.5"/>
		</g>
		<g id="POLYLINE_1821_">
			<path class="st106" d="M531.7,197.5c1.7-1.5,2.9-3.4,3.4-5.6"/>
		</g>
	</g>
</g>
<g id="AG-POP-CULTURE">
	<g id="POLYLINE_241_">
		<path class="st108" d="M494.3,146.8c-1-0.5-1.7-1.5-2.7-1.9c-0.9-0.4-1.9-0.1-2.8,0.2c-1.5,0.4-3,1.2-4.5,1.5
			c-0.9,0.2-1.9,0.1-2.8,0.2c-2.5,0.3-4.5,2.9-6.3,4.5c-1.1,0.9-2.2,1.8-3.5,2.4c-1.5,0.7-3,1.2-4.6,1.8c-1,0.4-2,0.8-2.8,1.5
			c-1.1,0.9-1.9,2-2.8,3c-1.6,1.6-3.3,1.7-5.4,2.3c-2,0.6-2.7,2.4-4,3.8c-1.5,1.7-3.8,2.4-5.8,3.3c-3.6,1.5-7.3,3-10.6,5.1
			c-1.8,1.1-3.2,2.7-3.9,4.8c-0.3,0.7-0.4,1.6,0.1,2.3c0.6,0.8,1.7,1.1,2.5,1.6c1.8,1.3,0.8,3.7,1.9,5.3c1.5,2.2,4.8,2.2,6.1,4.6
			c1,1.9,1.1,4.1,2.8,5.6c1.5,1.4,3.5,2.2,4.9,3.7c1.8,2,2.2,4.6,3.4,6.9c1.2,2.2,3.2,2.7,5.5,3c2.4,0.3,5.2,0.3,6.5,2.7
			c1.1,2,1.2,4.1,3.1,5.5c2,1.4,4,2.1,5.6,4c1,1.2,1.8,2.6,2.4,4c0.4,1.1,0.6,2.4,1.3,3.4c0.7,0.9,1.9,1.4,3,1.7
			c1.5,0.5,3.1,1,4.5,1.7c2,1,2.9,2.7,4.2,4.4c1.1,1.4,2.6,2.3,4.2,2.9c1.8,0.7,3.9,1.3,5.8,0.7c1.6-0.5,2.8-1.7,3.5-3.1
			c0.8-1.7,0.3-3.4,0.7-5.1c0.5-2,2.8-3.1,3.9-4.8c1.6-2.5,1.8-5.6,3.4-8.2c1.3-2.2,2.6-3.9,3-6.4c0.2-1.2,0.3-2.4,0.7-3.6
			c0.5-1.5,1.4-2.9,1.9-4.4c0.8-2.4,0.3-5.1,1.3-7.5c1.1-2.9,2.6-5.5,2.6-8.7c0-2.4-1.2-4-2-6.1c-0.7-1.9-0.1-3.9-0.1-5.9
			c0-2.4-1.6-4.2-2.5-6.3c-1.2-2.6-0.8-5.6-1.5-8.3c-0.7-2.7-2.6-4.4-4.6-6.2c-1.2-1.1-2.1-2.3-2.9-3.6c-0.6-1-1.2-1.8-2.4-2.3
			c-1-0.4-2.1-0.6-3-1.1c-1.1-0.6-1.8-1.5-2.4-2.6C498.4,147.1,496,147.6,494.3,146.8z"/>
	</g>
	<g id="POLYLINE_240_">
		<path class="st108" d="M506.4,149.3c2.3,2.3,4.7,3.9,7.8,5.1c3.2,1.2,6.6,2.1,10.1,2.2c4.6,0.2,9.3-1.3,12-5.3
			c1.8-2.6,2.8-5.6,3.7-8.6c1-3.3,1.9-6.7,2.3-10.1c0.4-3.8-0.1-7.6-0.3-11.4c-0.2-3.1,0.1-6.4-0.5-9.4c-1.3-5.9-5-10.8-10.3-13.6
			c-3.7-2-8-3.4-11.9-1.3c-3.1,1.7-6.2,3.9-9,6.1c-2.6,2.1-4.9,4.5-6.4,7.5c-1.5,3.1-2.1,6.6-2.9,9.9c-0.5,2.1-1,5.1-2.8,6.6
			c-0.7,0.6-1.8,0.8-2.6,1.2c-1.1,0.5-2,1.3-2.4,2.5c-0.4,1.1-0.3,2.3-0.1,3.5c0.3,1.5,1.1,3.6,2.6,4.4c0.5,0.2,1,0.3,1.4,0.7
			c0.3,0.3,0.5,0.8,0.6,1.2c0.5,1.4,0.7,3,1.1,4.4c0.5,1.8,1,3.6,1.3,5.4"/>
	</g>
	<g id="POLYLINE_239_">
		<path class="st108" d="M466.4,155.8c0.5-1.3,1-2.6,1.7-3.9c0.7-1.3,1.6-2.4,2.5-3.6c2.1-2.8,4.2-5.5,5.8-8.5
			c1.7-3,3.1-6.1,4.2-9.4c1-2.8,1.8-5.7,1.7-8.6c-0.1-3.1-0.8-6-0.3-9.1c0.5-3.2,1.9-6.2,3.4-9c3.3-5.8,7.7-11.3,13-15.4
			c5.4-4.2,12.1-6.6,19-6.2c5.4,0.3,12.3,1.9,16.1,6.1c1.7,1.9,2.4,4.5,3.9,6.5c1.1,1.6,2.8,2.4,4.1,3.9c3.8,4.5,3.6,11.4,3.9,16.9
			c0.1,1.5,0.2,3,0.6,4.4c0.4,1.4,1,2.7,1.4,4.2c0.5,2-0.2,3.9-0.8,5.8c-0.8,2.5-1.2,4.8-0.9,7.5c0.4,3.7,1.3,7.3,2,10.9
			c0.3,1.6,0.6,3.2,0.9,4.8"/>
	</g>
	<g id="POLYLINE_238_">
		<path class="st108" d="M529.3,156c-0.8,2.4-1.3,5-1.1,7.5c0.2,2,1.3,3.8,1.5,5.8c0.2,1.6-0.7,3.1-0.8,4.6c-0.1,1.4,0.4,2.8,1,4
			c0.5,1,1.2,2,1.5,3.1c0.3,1.1,0,2.2-0.1,3.3c-0.3,2.5,1,3.8,2.5,5.7c1.6,1.9,1.8,3.7,1.9,6.1c0.1,1.6,0.2,3.1,1.2,4.5
			c1.2,1.7,2.9,2.8,4,4.6c1.1,1.9,1.2,4.2,2.4,6c1.2,1.9,3.7,2.6,5.6,3.7c2,1.2,2.5,2.7,3.1,4.8c0.8,2.6,2.8,4.3,5.6,4.1
			c2-0.1,3.6-1.1,5.4-1.9c1.5-0.7,3-0.5,4.4,0.3c4.1,2.5,3.8,7.7,5.6,11.6c0.8,1.6,1.8,2.9,2.8,4.4c1,1.5,1.6,3.1,2.5,4.6
			c1,1.8,2.5,3.3,4.7,2.6c1.3-0.4,2.4-1.1,3.6-1.7c1.5-0.7,3.1-1.2,4.7-1.8c1.4-0.5,2.7-1.3,3.7-2.4c2.4-2.7,1.3-6.3,2.8-9.4
			c1.1-2.3,3.4-4.1,4-6.7c0.3-1.2,0.1-2.5-0.2-3.7c-0.2-0.6-0.4-1.1-0.8-1.6c-0.7-1-1.7-1.6-2.3-2.6c-1-1.8-0.5-4.2-1-6.2
			c-0.7-2.6-2.4-4.8-3.1-7.4c-0.5-2.1-0.3-4.2-1.6-6.1c-1.3-2-3.3-3.5-4.3-5.7c-0.8-1.7-0.5-3.6-1.2-5.3c-0.8-2-2.7-3.2-4.1-4.8
			c-1-1.2-1.3-2.7-2.2-4c-1.3-1.9-3.6-2.9-5.1-4.7c-1.6-1.9-2.5-4.1-4.5-5.6c-1.4-1.1-3-1.8-4.5-2.8c-1.3-0.9-2.4-1.9-3.5-3
			c-1.7-1.7-3.8-2.3-5.9-3.3c-2.1-1-4-2.6-6.4-3c-1.2-0.2-2.3-0.2-3.3-1c-0.9-0.7-1.7-1.5-2.6-2.1c-2-1.3-4.6-2.1-7-2.3"/>
	</g>
	<g id="POLYLINE_237_">
		<path class="st108" d="M514.9,166.2c2.4,0.8,4.6,2,6.6,3.5"/>
	</g>
	<g id="POLYLINE_220_">
		<path class="st108" d="M521.5,169.7c1.6-2.4,4-4.3,6.8-5.4"/>
	</g>
	<g id="POLYLINE_219_">
		<path class="st108" d="M499.6,298.6c-1.6-0.1-3.2-0.4-4.9-0.7c-2-0.4-4-0.6-5.9-1.2c-0.9-0.2-1.9-0.6-2.4-1.3
			c-0.6-0.8-0.4-1.8-1.1-2.6c-0.6-0.7-1.1-1.3-1.4-2.2c-0.2-0.7-0.3-1.3-0.3-2c0-0.7,0-1.4,0.1-2c0.2-0.9,0.7-1.7,1.1-2.6
			c1-2.1-0.1-4.7,0-6.9c0.1-1.6,0.7-2.9,1.8-4.1c1.3-1.4,3.1-2.6,5.2-2.3c1.9,0.3,3.6,1.2,5.5,1c1-0.1,1.8-0.2,2.7,0.3
			c1.1,0.5,2.1,1.4,3,2.1c2.2,1.6,4.9,2.4,6.9,4.3c0.5,0.5,0.9,1,1.4,1.5"/>
	</g>
	<g id="POLYLINE_218_">
		<path class="st108" d="M439.4,190.5c-0.3,7.3-0.6,14.6-1.3,21.9c-0.7,7.5-1.7,14.9-2.8,22.3c-1.1,7.4-2.4,14.8-3.7,22.2
			c-0.9,5.3-1.8,10.7-2.8,16c-1.7,9.6-3.5,19.2-5.2,28.8c-1.4,7.8-2.8,15.7-4.2,23.5c-1.1,6.2-2.4,12.4-3.7,18.6
			c-1.1,5.3-2.2,10.5-3.4,15.8c-1,4.5-2.1,9.1-3.1,13.6c-1.9,8.4-3.8,16.8-5.8,25.2c-2.4,10.5-4.8,21-7.2,31.5
			c-2.4,10.6-4.9,21.3-7.3,31.9c-2.1,9.1-4.1,18.2-6.2,27.3c-1.3,5.6-2.6,11.3-3.9,16.9c-0.7,3-1.4,6-2.2,9
			c-2.2,9.1-4.4,18.2-6.6,27.3c-1.6,6.8-3.5,13.5-5.3,20.2c-1.7,6.4-3.5,12.9-5.4,19.2c-2.2,7.4-4.5,14.8-6.8,22.2
			c-0.6,1.8-1.1,3.8,0,5.6c0.9,1.4,2.4,2.2,3.9,2.8c3.1,1.3,6.6,1.8,9.9,2.3c3.6,0.5,7.3,0.8,10.9,1.1c7.4,0.5,14.8,0.7,22.3,0.8
			c7.2,0.1,14.5,0.1,21.7,0.1c7.8,0,15.6-0.2,23.3-0.3c7.3-0.1,14.6-0.4,21.9-0.7c3.4-0.2,6.8-0.4,10.1-0.7c2.6-0.3,5.3-0.5,7.7-1.6
			c2.9-1.4,5.3-4,5.6-7.3c0.3-3.3-0.4-6.8-0.9-10.1c-0.4-3.4-0.7-6.8-0.8-10.2c-0.3-6.4-0.3-12.8-0.2-19.2c0-2.8,0.1-5.5,0.1-8.3
			c0.1-6.3,0.2-12.6,0.3-19c0.1-9,0.3-17.9,0.4-26.9c0.2-10.5,0.3-21.1,0.5-31.6c0.2-11.1,0.3-22.2,0.5-33.4
			c0.2-10.7,0.3-21.5,0.5-32.2c0.1-9.3,0.3-18.6,0.4-27.8c0.1-6.9,0.2-13.8,0.3-20.8c0.1-3.5,0.1-7,0.2-10.5
			c0.1-5.9,0-11.8,0.1-17.8c0-6.7-0.1-13.4-0.4-20c-0.3-7.2-1.1-14.3-1.8-21.5"/>
	</g>
	<g id="POLYLINE_217_">
		<path class="st108" d="M488.1,271.7c-0.1-5.2-0.2-10.4-0.3-15.6c-0.1-4.1-0.3-8.2-0.4-12.2c-0.1-2.5-0.2-5.1-0.3-7.6"/>
	</g>
	<g id="POLYLINE_216_">
		<path class="st108" d="M499.6,298.6c-0.7-2,0.6-4.3,1.4-6.1c1.5-3.1,3.2-6.1,5.2-8.9c1.1-1.4,2.4-2.9,4.1-3.5
			c1.8-0.6,3.8-0.4,5.5,0.2c2.3,0.8,4.3,2.3,5.8,4.2c1.9,2.4,3.2,5.4,5.6,7.4c2.1,1.8,4.9,2.5,7.2,3.8c2.9,1.7,5.5,4,7.8,6.4
			c2.5,2.5,4.7,5.3,6.5,8.3c1.9,3.3,3.3,6.9,4.8,10.4c1.4,3.4,3.5,7.7,0.5,10.8c-3.6,3.7-9.7,4-14.4,2.8c-2.5-0.6-4.4-2.1-6.5-3.7
			c-2.7-2-5.7-3.7-8-6.2c-2.1-2.3-3.4-5.2-4.8-8c-1.4-2.8-3.2-5.4-5.3-7.8c-1.9-2.1-4.1-3.9-6.7-5c-2.5-1.1-5.4-1.7-7.5-3.5
			C500.3,299.9,499.8,299.3,499.6,298.6z"/>
	</g>
	<g id="POLYLINE_215_">
		<path class="st108" d="M549.2,290.8c-2-1.4-2.9-3.7-2.1-6.1c0.6-1.8,1.5-3.4,1.8-5.3c0.3-1.8,0.4-3.1,2.1-3.9
			c1.3-0.6,2.3-1.2,3-2.5c0.7-1.5,1.1-3.2,2.9-3.5c2-0.3,4.1,0.2,6.1,0c1.3-0.1,2.4-0.8,3.5,0.2c1.3,1.2,2,2.9,3,4.3
			c0.9,1.3,2.1,1.6,3.4,2.5c1.2,0.8,2,2.1,2.6,3.4c0.5,1.1,1,2.2,1.5,3.2c0.4,0.7,0.9,1.4,1.4,2.1c1.4,2.5,0.9,5.4,0.2,8
			c-0.2,0.7-0.3,1.4-0.1,2.1c0.2,0.6,0.5,1.2,0.5,1.9c0.2,1.4-0.4,2.9-1,4.2c-0.8,1.8-2.1,3.5-2.9,5.3c-0.6,1.4-1.1,2.8-2.5,3.5
			c-1.2,0.6-2.5,0.8-3.5,1.7c-0.5,0.4-1.1,1.5-1.8,1.6c-0.7,0.1-1.2-0.8-1.6-1.2c-0.6-0.5-1.2-0.9-1.8-1.3"/>
	</g>
	<g id="POLYLINE_214_">
		<path class="st108" d="M555,324.8c3.3-4.3,6.7-8.9,9-13.9c1.1-2.4,1.8-4.9,2.4-7.4c0.4-1.7,0.9-3.6,0.5-5.3
			c-0.3-1.1-0.9-2-1.7-2.8c-1.6-1.7-3.6-3-5.6-4.1c-2.5-1.3-5.2-2.2-8.1-1.4c-4.4,1.2-8,4.9-10.8,8.3c-0.4,0.5-0.8,1-1.1,1.5"/>
	</g>
	<g id="POLYLINE_213_">
		<path class="st108" d="M502.8,273.9c5.6,0.2,11.2,0.4,16.8,0.7c6.8,0.4,13.6,0.8,20.4,1.2c3.2,0.2,6.3,0.5,9.5,0.7"/>
	</g>
	<g id="POLYLINE_212_">
		<path class="st108" d="M488.1,266.7c4.4,0,8.8-0.1,13.1,0c4.3,0,8.5,0.1,12.8,0.3c4.9,0.2,9.7,0.4,14.6,0.6
			c4.6,0.2,9.1,0.5,13.7,0.8c4,0.2,8,0.6,12,1c0.6,0.1,1.2,0.1,1.8,0.2"/>
	</g>
	<g id="POLYLINE_30_">
		<path class="st108" d="M589.5,242.5c1.2,7.2,2.3,14.4,3.3,21.6c0.9,6.9,1.7,13.7,2.4,20.6c0.7,7,1.2,14.1,1.5,21.1
			c0.3,6.9,0.4,13.9,0.6,20.8c0.2,7,0.3,13.9,0.6,20.9c0.3,6,0.7,12,1.2,18c0.2,3,0.5,6,0.8,9c0.6,6.6,1.2,13.2,1.7,19.8
			c0.8,9.1,1.6,18.1,2.4,27.2c0.9,10.4,1.8,20.7,2.7,31.1c0.9,10.5,1.8,21,2.8,31.4c0.8,9.4,1.7,18.9,2.5,28.3
			c0.6,7.2,1.3,14.5,1.9,21.7c0.3,3.9,0.7,7.7,1,11.6c0.5,5.3,1,10.6,1.6,15.9c0.6,6.4,1.3,12.8,2.2,19.1c0.5,3.5,1.1,6.9,1.8,10.4
			c0.4,2,1.2,4.1,0.6,6.1c-0.6,1.8-1.9,3.3-3.3,4.6c-2.3,2.2-4.8,4.2-7.5,6c-5.2,3.4-10.9,5.7-17.1,6.3c-6.6,0.7-13.3-0.1-19.9-0.5
			c-3.2-0.2-6.4-0.1-9.7-0.2"/>
	</g>
	<g id="POLYLINE_29_">
		<path class="st108" d="M559.2,223.5c0.7,1.9,1.3,3.7,1.4,5.8c0,2.8-0.2,5.6-0.5,8.4c-0.7,7-1.5,14-1.7,21
			c-0.1,3.6,0.1,7.2,0.3,10.8"/>
	</g>
	<g id="POLYLINE_28_">
		<path class="st108" d="M462,615.9c4.3,0.1,8.6,0.1,12.8,0.2c9.1,0.2,18.3,0.3,27.4,0.5c8.5,0.1,17,0.3,25.5,0.4
			c4.1,0.1,8.2,0.2,12.3,0.1c3.2,0,6.4-0.1,9.5-0.3c3-0.2,6.1-0.3,9.1-0.9c2.6-0.6,5.5-1.6,6-4.6c0.4-2,0-4-0.3-6
			c-0.5-3.2-1-6.4-1.2-9.6c-0.5-6.3-0.7-12.5-0.9-18.8c-0.2-6.5-0.4-13-0.7-19.5c-0.3-6.4-0.8-12.8-1.3-19.1
			c-0.5-6.6-1.2-13.2-1.7-19.7c-0.7-7.4-1.3-14.8-2-22.2c-0.6-6.4-1-12.8-1.5-19.3c-0.4-5.6-0.8-11.3-1.2-16.9
			c-0.3-6-0.7-11.9-0.9-17.9c-0.3-6.7-0.7-13.4-0.8-20.1c-0.2-7.5-0.4-15-0.6-22.6c-0.2-6.6-0.1-13.3-0.2-19.9
			c-0.1-5.6,0-11.2,0.1-16.8c0.1-7,0.3-14,0.6-21c0.1-2.9,0.2-5.8,0.3-8.7"/>
	</g>
</g>
<g id="AG-OUTLINE">
	<g id="POLYLINE_27_">
		<path class="st110" d="M462,615.9c4.5,0.1,9.1,0.2,13.6,0.2c9.5,0.2,19.1,0.3,28.6,0.5c8.4,0.1,16.9,0.3,25.3,0.4
			c4.3,0.1,8.6,0.2,12.9,0.1c3.4-0.1,6.8-0.2,10.2-0.4c2.8-0.2,5.7-0.4,8.3-1.4c0.5-0.2,1.1-0.5,1.6-0.8c0.2-0.1,0.4-0.3,0.6-0.5
			c0.1-0.1,0.2-0.2,0.3-0.3c0.4-0.2,0.7-0.2,1.2-0.2c3.2,0,6.4,0,9.6,0.2c6.2,0.4,12.5,1.1,18.8,0.5c5.8-0.6,11.2-2.6,16.1-5.6
			c2.6-1.6,5.1-3.5,7.4-5.6c1.6-1.4,3.2-3,4.1-4.9c0.7-1.4,0.7-2.8,0.4-4.3c-0.6-3.1-1.3-6.1-1.8-9.2c-1.1-6.8-1.8-13.7-2.6-20.5
			c-0.6-5.8-1.2-11.6-1.7-17.4c-0.2-2.5-0.4-5-0.7-7.5c-0.5-5.9-1-11.8-1.5-17.6c-0.7-8.3-1.5-16.5-2.2-24.8
			c-0.8-9.7-1.7-19.3-2.5-29c-0.9-10-1.8-20.1-2.6-30.1c-0.8-9.4-1.7-18.9-2.5-28.3c-0.7-7.8-1.4-15.6-2.1-23.5
			c-0.5-5.2-0.9-10.4-1.4-15.6c-0.2-2.1-0.4-4.2-0.5-6.2c-0.5-7-1-13.9-1.3-20.9c-0.3-7.3-0.4-14.5-0.5-21.8
			c-0.1-6.3-0.3-12.6-0.6-18.9c-0.3-6.6-0.9-13.2-1.6-19.8c-0.6-6.3-1.3-12.6-2.2-18.9c-0.5-3.6-1-7.3-1.6-10.9
			c-0.2-1.3-0.4-2.7-0.6-4c-0.2-1.1-0.4-2.3-0.6-3.4c-0.1-0.8-0.6-2-0.5-2.8c0.1-0.3-0.1-0.1,0.3-0.3c0.3-0.2,0.8-0.3,1.1-0.4
			c0.4-0.2,0.9-0.3,1.3-0.6c0.5-0.3,1-0.6,1.5-0.9c0.9-0.7,1.6-1.5,2.1-2.5c0.8-1.5,0.8-3.2,1-4.8c0.2-1.6,0.6-2.9,1.4-4.3
			c1.1-1.8,3-3.5,3.4-5.7c0.2-1,0.1-2.1-0.1-3.1c-0.3-1.2-0.8-2.2-1.7-3c-0.7-0.8-1.5-1.4-1.8-2.5c-0.2-0.8-0.3-1.7-0.3-2.6
			c-0.1-2.2-0.7-4-1.6-6c-1-2.1-1.9-4.1-2.2-6.4c-0.2-1.9-0.6-3.3-1.7-4.8c-1.2-1.6-2.9-3.1-3.8-4.9c-0.6-1.4-0.6-2.9-0.9-4.4
			c-0.4-1.7-1.5-2.9-2.7-4.1c-1.1-1-2.1-2-2.8-3.3c-0.3-0.7-0.5-1.4-0.9-2.1c-0.4-0.7-1-1.2-1.6-1.8c-1.9-1.6-3.6-2.9-4.9-5
			c-1.1-1.7-2.2-3.1-3.8-4.3c-1.3-0.9-2.7-1.6-4-2.4c-1.1-0.7-2-1.5-2.9-2.4c-1.3-1.3-2.5-2.2-4.3-2.9c-1.3-0.5-2.6-1.1-3.8-1.8
			c-1.1-0.6-2.1-1.3-3.3-1.7c-0.7-0.3-1.3-0.4-2-0.4c-0.4,0-0.9,0-1.4-0.2c-0.6-0.3-0.6-1.4-0.8-2c-0.7-3.3-1.2-6.7-1.9-10
			c-0.5-2.3-0.9-4.6-0.7-7c0.2-2.5,1.4-4.8,1.9-7.3c0.3-1.6-0.1-3.1-0.7-4.6c-1-2.7-1.3-5.2-1.5-8.1c-0.2-3.2-0.3-6.4-1.1-9.5
			c-0.5-2-1.3-4.1-2.6-5.8c-1.1-1.4-2.7-2.2-3.8-3.5c-1.4-1.7-2.1-3.9-3.3-5.8c-1.2-1.8-2.8-3.1-4.7-4.1c-4.9-2.7-11-3.8-16.6-3.2
			c-6,0.7-11.6,3.3-16.2,7.2c-4.6,3.9-8.5,8.9-11.5,14.1c-1.4,2.5-2.7,5.3-3.4,8.1c-0.5,2.5-0.4,5-0.2,7.6c0.3,2.8,0.3,5.3-0.4,8
			c-0.8,3-1.9,5.8-3.2,8.6c-1.2,2.6-2.5,5-4.1,7.4c-1.7,2.6-3.8,5-5.6,7.5c-0.6,0.9-1.1,1.9-1.6,2.9c-0.3,0.6-0.4,1.7-0.8,2.1
			c-0.2,0.2-0.7,0.3-0.9,0.5c-1.7,1-2.8,2.7-4.2,4c-1.3,1.3-2.7,1.5-4.4,1.9c-1.3,0.3-2.3,0.9-3.1,1.9c-1,1.2-1.7,2.5-3,3.3
			c-2.4,1.5-5.3,2.4-7.9,3.6c-4.1,1.8-9,3.6-10.8,8c-0.6,1.5-0.3,2.6,1.1,3.4c0.7,0.4,1.5,0.7,2,1.3c0.5,0.6,0.6,1.3,0.7,2
			c0.1,0.8,0.1,1.8,0.5,2.5c0.5,0.9,1.5,1.5,2.4,1.9c0.9,0.5,0.8,0.5,0.7,1.5c0,1.2-0.1,2.3-0.1,3.5c-0.1,1.4-0.1,2.8-0.2,4.2
			c-0.4,6.6-0.8,13.2-1.6,19.7c-0.8,7-1.8,13.9-2.9,20.8c-1.1,7.1-2.4,14.2-3.6,21.3c-0.7,4.2-1.4,8.3-2.2,12.5
			c-1.6,8.8-3.2,17.6-4.7,26.3c-1.4,7.9-2.8,15.7-4.2,23.6c-1,5.6-2.2,11.2-3.3,16.8c-1.2,6.1-2.5,12.2-3.8,18.2
			c-0.5,2.4-1.1,4.7-1.6,7.1c-1.4,6.2-2.8,12.4-4.2,18.6c-2,8.7-3.9,17.3-5.9,26c-2.2,9.8-4.4,19.5-6.7,29.3
			c-2.2,9.5-4.3,19-6.5,28.5c-1.8,7.9-3.6,15.7-5.4,23.6c-1.1,4.9-2.2,9.8-3.3,14.7c-0.5,2.3-1.1,4.6-1.6,7
			c-2.1,8.8-4.3,17.5-6.4,26.3c-1.4,5.8-3,11.6-4.5,17.4c-1.7,6.6-3.6,13.3-5.4,19.9c-1.6,5.9-3.3,11.7-5.1,17.5
			c-1,3.3-2.1,6.5-3.1,9.7c-0.5,1.6-1,3.4-0.3,5c0.6,1.4,1.9,2.3,3.2,2.9c2.4,1.2,5.1,1.8,7.8,2.2c6.3,1.1,12.8,1.6,19.2,1.9
			c6.6,0.3,13.2,0.5,19.8,0.5c7.2,0.1,14.5,0,21.7,0c6.2,0,12.4-0.1,18.6-0.3C449.2,616.3,455.6,616.1,462,615.9z"/>
	</g>
</g>
</svg>
